<svg width="240" height="80" viewBox="0 0 240 80" fill="none" xmlns="http://www.w3.org/2000/svg">
<g clip-path="url(#clip0)">
<rect width="240" height="80" rx="5.37349" fill="#333333"/>
<path d="M54.7991 55C53.1391 57.48 51.3791 59.9 48.6991 59.94C46.0191 60 45.1591 58.36 42.1191 58.36C39.0591 58.36 38.1191 59.9 35.5791 60C32.9591 60.1 30.9791 57.36 29.2991 54.94C25.8791 50 23.2591 40.9 26.7791 34.78C28.5191 31.74 31.6391 29.82 35.0191 29.76C37.5791 29.72 40.0191 31.5 41.5991 31.5C43.1591 31.5 46.1191 29.36 49.2191 29.68C50.5191 29.74 54.1591 30.2 56.4991 33.64C56.3191 33.76 52.1591 36.2 52.1991 41.26C52.2591 47.3 57.4991 49.32 57.5591 49.34C57.4991 49.48 56.7191 52.22 54.7991 55ZM43.3791 23C44.8391 21.34 47.2591 20.08 49.2591 20C49.5191 22.34 48.5791 24.7 47.1791 26.38C45.7991 28.08 43.5191 29.4 41.2791 29.22C40.9791 26.92 42.0991 24.52 43.3791 23Z" fill="white"/>
<path d="M76.8516 21.0872H80.8036C81.8169 21.0872 82.7022 21.2738 83.4596 21.6472C84.2169 22.0205 84.7982 22.5538 85.2036 23.2472C85.6196 23.9298 85.8276 24.7245 85.8276 25.6312C85.8276 26.5378 85.6196 27.3378 85.2036 28.0312C84.7982 28.7138 84.2169 29.2418 83.4596 29.6152C82.7022 29.9885 81.8169 30.1752 80.8036 30.1752H76.8516V21.0872ZM80.7396 28.8792C81.8489 28.8792 82.7129 28.5912 83.3316 28.0152C83.9502 27.4285 84.2596 26.6338 84.2596 25.6312C84.2596 24.6178 83.9502 23.8232 83.3316 23.2472C82.7129 22.6605 81.8489 22.3672 80.7396 22.3672H78.4036V28.8792H80.7396Z" fill="white"/>
<path d="M92.1819 30.3032C91.2539 30.3032 90.4113 30.1005 89.6539 29.6952C88.8966 29.2898 88.3046 28.7352 87.8779 28.0312C87.4513 27.3165 87.2379 26.5165 87.2379 25.6312C87.2379 24.7458 87.4513 23.9512 87.8779 23.2472C88.3046 22.5325 88.8966 21.9725 89.6539 21.5672C90.4113 21.1618 91.2539 20.9592 92.1819 20.9592C93.1206 20.9592 93.9633 21.1618 94.7099 21.5672C95.4673 21.9725 96.0593 22.5325 96.4859 23.2472C96.9126 23.9512 97.1259 24.7458 97.1259 25.6312C97.1259 26.5165 96.9126 27.3165 96.4859 28.0312C96.0593 28.7352 95.4673 29.2898 94.7099 29.6952C93.9633 30.1005 93.1206 30.3032 92.1819 30.3032ZM92.1819 28.9592C92.8219 28.9592 93.3979 28.8152 93.9099 28.5272C94.4219 28.2392 94.8219 27.8445 95.1099 27.3432C95.4086 26.8418 95.5579 26.2712 95.5579 25.6312C95.5579 24.9912 95.4086 24.4205 95.1099 23.9192C94.8219 23.4178 94.4219 23.0232 93.9099 22.7352C93.3979 22.4472 92.8219 22.3032 92.1819 22.3032C91.5419 22.3032 90.9659 22.4472 90.4539 22.7352C89.9419 23.0232 89.5366 23.4178 89.2379 23.9192C88.9499 24.4205 88.8059 24.9912 88.8059 25.6312C88.8059 26.2712 88.9499 26.8418 89.2379 27.3432C89.5366 27.8445 89.9419 28.2392 90.4539 28.5272C90.9659 28.8152 91.5419 28.9592 92.1819 28.9592Z" fill="white"/>
<path d="M112.239 21.0872L109.167 30.1752H107.519L105.135 23.1992L102.751 30.1752H101.087L98.0154 21.0872H99.6154L101.983 28.2072L104.447 21.0872H105.903L108.319 28.2552L110.735 21.0872H112.239Z" fill="white"/>
<path d="M122.416 21.0872V30.1752H121.136L115.888 23.7592V30.1752H114.336V21.0872H115.616L120.864 27.5352V21.0872H122.416Z" fill="white"/>
<path d="M125.523 21.0872H127.075V28.8792H131.955V30.1752H125.523V21.0872Z" fill="white"/>
<path d="M137.526 30.3032C136.598 30.3032 135.755 30.1005 134.998 29.6952C134.24 29.2898 133.648 28.7352 133.222 28.0312C132.795 27.3165 132.582 26.5165 132.582 25.6312C132.582 24.7458 132.795 23.9512 133.222 23.2472C133.648 22.5325 134.24 21.9725 134.998 21.5672C135.755 21.1618 136.598 20.9592 137.526 20.9592C138.464 20.9592 139.307 21.1618 140.054 21.5672C140.811 21.9725 141.403 22.5325 141.83 23.2472C142.256 23.9512 142.47 24.7458 142.47 25.6312C142.47 26.5165 142.256 27.3165 141.83 28.0312C141.403 28.7352 140.811 29.2898 140.054 29.6952C139.307 30.1005 138.464 30.3032 137.526 30.3032ZM137.526 28.9592C138.166 28.9592 138.742 28.8152 139.254 28.5272C139.766 28.2392 140.166 27.8445 140.454 27.3432C140.752 26.8418 140.902 26.2712 140.902 25.6312C140.902 24.9912 140.752 24.4205 140.454 23.9192C140.166 23.4178 139.766 23.0232 139.254 22.7352C138.742 22.4472 138.166 22.3032 137.526 22.3032C136.886 22.3032 136.31 22.4472 135.798 22.7352C135.286 23.0232 134.88 23.4178 134.582 23.9192C134.294 24.4205 134.15 24.9912 134.15 25.6312C134.15 26.2712 134.294 26.8418 134.582 27.3432C134.88 27.8445 135.286 28.2392 135.798 28.5272C136.31 28.8152 136.886 28.9592 137.526 28.9592Z" fill="white"/>
<path d="M150.362 28.0152H145.482L144.522 30.1752H143.002L147.162 21.0872H148.698L152.874 30.1752H151.306L150.362 28.0152ZM149.818 26.7832L147.93 22.4952L146.026 26.7832H149.818Z" fill="white"/>
<path d="M154.414 21.0872H158.366C159.379 21.0872 160.265 21.2738 161.022 21.6472C161.779 22.0205 162.361 22.5538 162.766 23.2472C163.182 23.9298 163.39 24.7245 163.39 25.6312C163.39 26.5378 163.182 27.3378 162.766 28.0312C162.361 28.7138 161.779 29.2418 161.022 29.6152C160.265 29.9885 159.379 30.1752 158.366 30.1752H154.414V21.0872ZM158.302 28.8792C159.411 28.8792 160.275 28.5912 160.894 28.0152C161.513 27.4285 161.822 26.6338 161.822 25.6312C161.822 24.6178 161.513 23.8232 160.894 23.2472C160.275 22.6605 159.411 22.3672 158.302 22.3672H155.966V28.8792H158.302Z" fill="white"/>
<path d="M174.041 30.3032C173.113 30.3032 172.271 30.1005 171.513 29.6952C170.756 29.2898 170.164 28.7352 169.737 28.0312C169.311 27.3165 169.097 26.5165 169.097 25.6312C169.097 24.7458 169.311 23.9512 169.737 23.2472C170.164 22.5325 170.756 21.9725 171.513 21.5672C172.271 21.1618 173.113 20.9592 174.041 20.9592C174.98 20.9592 175.823 21.1618 176.569 21.5672C177.327 21.9725 177.919 22.5325 178.345 23.2472C178.772 23.9512 178.985 24.7458 178.985 25.6312C178.985 26.5165 178.772 27.3165 178.345 28.0312C177.919 28.7352 177.327 29.2898 176.569 29.6952C175.823 30.1005 174.98 30.3032 174.041 30.3032ZM174.041 28.9592C174.681 28.9592 175.257 28.8152 175.769 28.5272C176.281 28.2392 176.681 27.8445 176.969 27.3432C177.268 26.8418 177.417 26.2712 177.417 25.6312C177.417 24.9912 177.268 24.4205 176.969 23.9192C176.681 23.4178 176.281 23.0232 175.769 22.7352C175.257 22.4472 174.681 22.3032 174.041 22.3032C173.401 22.3032 172.825 22.4472 172.313 22.7352C171.801 23.0232 171.396 23.4178 171.097 23.9192C170.809 24.4205 170.665 24.9912 170.665 25.6312C170.665 26.2712 170.809 26.8418 171.097 27.3432C171.396 27.8445 171.801 28.2392 172.313 28.5272C172.825 28.8152 173.401 28.9592 174.041 28.9592Z" fill="white"/>
<path d="M189.322 21.0872V30.1752H188.042L182.794 23.7592V30.1752H181.242V21.0872H182.522L187.77 27.5352V21.0872H189.322Z" fill="white"/>
<path d="M198.343 22.3672H195.239V21.0872H202.999V22.3672H199.895V30.1752H198.343V22.3672Z" fill="white"/>
<path d="M204.617 21.0872H206.169V24.9272H211.145V21.0872H212.697V30.1752H211.145V26.2072H206.169V30.1752H204.617V21.0872Z" fill="white"/>
<path d="M222.621 28.8792V30.1752H215.805V21.0872H222.445V22.3672H217.357V24.9272H221.885V26.1912H217.357V28.8792H222.621Z" fill="white"/>
<path d="M88.6509 50.4968H80.2509L78.5949 54.3848H75.3789L82.9389 37.5848H86.0109L93.5949 54.3848H90.3309L88.6509 50.4968ZM87.6189 48.0488L84.4509 40.7048L81.3069 48.0488H87.6189Z" fill="white"/>
<path d="M102.547 41.4248C103.795 41.4248 104.907 41.6968 105.883 42.2408C106.875 42.7848 107.651 43.5528 108.211 44.5448C108.771 45.5368 109.051 46.6808 109.051 47.9768C109.051 49.2728 108.771 50.4248 108.211 51.4328C107.651 52.4248 106.875 53.1928 105.883 53.7368C104.907 54.2808 103.795 54.5528 102.547 54.5528C100.819 54.5528 99.4515 53.9768 98.4435 52.8248V59.0408H95.4435V41.5688H98.2995V43.2488C98.7955 42.6408 99.4035 42.1848 100.123 41.8808C100.859 41.5768 101.667 41.4248 102.547 41.4248ZM102.211 51.9848C103.315 51.9848 104.219 51.6168 104.923 50.8808C105.643 50.1448 106.003 49.1768 106.003 47.9768C106.003 46.7768 105.643 45.8088 104.923 45.0728C104.219 44.3368 103.315 43.9688 102.211 43.9688C101.491 43.9688 100.843 44.1368 100.267 44.4728C99.6915 44.7928 99.2355 45.2568 98.8995 45.8648C98.5635 46.4728 98.3955 47.1768 98.3955 47.9768C98.3955 48.7768 98.5635 49.4808 98.8995 50.0888C99.2355 50.6968 99.6915 51.1688 100.267 51.5048C100.843 51.8248 101.491 51.9848 102.211 51.9848Z" fill="white"/>
<path d="M119.001 41.4248C120.249 41.4248 121.361 41.6968 122.337 42.2408C123.329 42.7848 124.105 43.5528 124.665 44.5448C125.225 45.5368 125.505 46.6808 125.505 47.9768C125.505 49.2728 125.225 50.4248 124.665 51.4328C124.105 52.4248 123.329 53.1928 122.337 53.7368C121.361 54.2808 120.249 54.5528 119.001 54.5528C117.273 54.5528 115.905 53.9768 114.897 52.8248V59.0408H111.897V41.5688H114.753V43.2488C115.249 42.6408 115.857 42.1848 116.577 41.8808C117.313 41.5768 118.121 41.4248 119.001 41.4248ZM118.665 51.9848C119.769 51.9848 120.673 51.6168 121.377 50.8808C122.097 50.1448 122.457 49.1768 122.457 47.9768C122.457 46.7768 122.097 45.8088 121.377 45.0728C120.673 44.3368 119.769 43.9688 118.665 43.9688C117.945 43.9688 117.297 44.1368 116.721 44.4728C116.145 44.7928 115.689 45.2568 115.353 45.8648C115.017 46.4728 114.849 47.1768 114.849 47.9768C114.849 48.7768 115.017 49.4808 115.353 50.0888C115.689 50.6968 116.145 51.1688 116.721 51.5048C117.297 51.8248 117.945 51.9848 118.665 51.9848Z" fill="white"/>
<path d="M140.479 54.6248C139.183 54.6248 137.927 54.4408 136.711 54.0728C135.511 53.7048 134.559 53.2168 133.855 52.6088L134.935 50.1848C135.623 50.7288 136.463 51.1768 137.455 51.5288C138.463 51.8648 139.471 52.0328 140.479 52.0328C141.727 52.0328 142.655 51.8328 143.263 51.4328C143.887 51.0328 144.199 50.5048 144.199 49.8488C144.199 49.3688 144.023 48.9768 143.671 48.6728C143.335 48.3528 142.903 48.1048 142.375 47.9288C141.847 47.7528 141.127 47.5528 140.215 47.3288C138.935 47.0248 137.895 46.7208 137.095 46.4168C136.311 46.1128 135.631 45.6408 135.055 45.0008C134.495 44.3448 134.215 43.4648 134.215 42.3608C134.215 41.4328 134.463 40.5928 134.959 39.8408C135.471 39.0728 136.231 38.4648 137.239 38.0168C138.263 37.5688 139.511 37.3448 140.983 37.3448C142.007 37.3448 143.015 37.4728 144.007 37.7288C144.999 37.9848 145.855 38.3528 146.575 38.8328L145.591 41.2568C144.855 40.8248 144.087 40.4968 143.287 40.2728C142.487 40.0488 141.711 39.9368 140.959 39.9368C139.727 39.9368 138.807 40.1448 138.199 40.5608C137.607 40.9768 137.311 41.5288 137.311 42.2168C137.311 42.6968 137.479 43.0888 137.815 43.3928C138.167 43.6968 138.607 43.9368 139.135 44.1128C139.663 44.2888 140.383 44.4888 141.295 44.7128C142.543 45.0008 143.567 45.3048 144.367 45.6248C145.167 45.9288 145.847 46.4008 146.407 47.0408C146.983 47.6808 147.271 48.5448 147.271 49.6328C147.271 50.5608 147.015 51.4008 146.503 52.1528C146.007 52.9048 145.247 53.5048 144.223 53.9528C143.199 54.4008 141.951 54.6248 140.479 54.6248Z" fill="white"/>
<path d="M157.78 53.6888C157.428 53.9768 156.996 54.1928 156.484 54.3368C155.988 54.4808 155.46 54.5528 154.9 54.5528C153.492 54.5528 152.404 54.1848 151.636 53.4488C150.868 52.7128 150.484 51.6408 150.484 50.2328V44.0648H148.372V41.6648H150.484V38.7368H153.484V41.6648H156.916V44.0648H153.484V50.1608C153.484 50.7848 153.636 51.2648 153.94 51.6008C154.244 51.9208 154.684 52.0808 155.26 52.0808C155.932 52.0808 156.492 51.9048 156.94 51.5528L157.78 53.6888Z" fill="white"/>
<path d="M165.586 54.5528C164.29 54.5528 163.122 54.2728 162.082 53.7128C161.042 53.1528 160.226 52.3768 159.634 51.3848C159.058 50.3768 158.77 49.2408 158.77 47.9768C158.77 46.7128 159.058 45.5848 159.634 44.5928C160.226 43.6008 161.042 42.8248 162.082 42.2648C163.122 41.7048 164.29 41.4248 165.586 41.4248C166.898 41.4248 168.074 41.7048 169.114 42.2648C170.154 42.8248 170.962 43.6008 171.538 44.5928C172.13 45.5848 172.426 46.7128 172.426 47.9768C172.426 49.2408 172.13 50.3768 171.538 51.3848C170.962 52.3768 170.154 53.1528 169.114 53.7128C168.074 54.2728 166.898 54.5528 165.586 54.5528ZM165.586 51.9848C166.69 51.9848 167.602 51.6168 168.322 50.8808C169.042 50.1448 169.402 49.1768 169.402 47.9768C169.402 46.7768 169.042 45.8088 168.322 45.0728C167.602 44.3368 166.69 43.9688 165.586 43.9688C164.482 43.9688 163.57 44.3368 162.85 45.0728C162.146 45.8088 161.794 46.7768 161.794 47.9768C161.794 49.1768 162.146 50.1448 162.85 50.8808C163.57 51.6168 164.482 51.9848 165.586 51.9848Z" fill="white"/>
<path d="M178.151 43.4408C179.015 42.0968 180.535 41.4248 182.711 41.4248V44.2808C182.455 44.2328 182.223 44.2088 182.015 44.2088C180.847 44.2088 179.935 44.5528 179.279 45.2408C178.623 45.9128 178.295 46.8888 178.295 48.1688V54.3848H175.295V41.5688H178.151V43.4408Z" fill="white"/>
<path d="M197.187 48.0488C197.187 48.2568 197.171 48.5528 197.139 48.9368H187.083C187.259 49.8808 187.715 50.6328 188.451 51.1928C189.203 51.7368 190.131 52.0088 191.235 52.0088C192.643 52.0088 193.803 51.5448 194.715 50.6168L196.323 52.4648C195.747 53.1528 195.019 53.6728 194.139 54.0248C193.259 54.3768 192.267 54.5528 191.163 54.5528C189.755 54.5528 188.515 54.2728 187.443 53.7128C186.371 53.1528 185.539 52.3768 184.947 51.3848C184.371 50.3768 184.083 49.2408 184.083 47.9768C184.083 46.7288 184.363 45.6088 184.923 44.6168C185.499 43.6088 186.291 42.8248 187.299 42.2648C188.307 41.7048 189.443 41.4248 190.707 41.4248C191.955 41.4248 193.067 41.7048 194.043 42.2648C195.035 42.8088 195.803 43.5848 196.347 44.5928C196.907 45.5848 197.187 46.7368 197.187 48.0488ZM190.707 43.8248C189.747 43.8248 188.931 44.1128 188.259 44.6888C187.603 45.2488 187.203 46.0008 187.059 46.9448H194.331C194.203 46.0168 193.811 45.2648 193.155 44.6888C192.499 44.1128 191.683 43.8248 190.707 43.8248Z" fill="white"/>
</g>
<defs>
<clipPath id="clip0">
<rect width="240" height="80" rx="5.37349" fill="white"/>
</clipPath>
</defs>
</svg>
