<svg width="27" height="28" viewBox="0 0 27 28" fill="none" xmlns="http://www.w3.org/2000/svg">
<path d="M13.5 0.720215C6.16667 0.720215 0.166672 6.70688 0.166672 14.0802C0.166672 20.7469 5.04667 26.2802 11.42 27.2802V17.9469H8.03334V14.0802H11.42V11.1335C11.42 7.78688 13.4067 5.94688 16.46 5.94688C17.9133 5.94688 19.4333 6.20022 19.4333 6.20022V9.49355H17.7533C16.1 9.49355 15.58 10.5202 15.58 11.5735V14.0802H19.2867L18.6867 17.9469H15.58V27.2802C18.7219 26.784 21.5829 25.1809 23.6466 22.7603C25.7102 20.3397 26.8405 17.2611 26.8333 14.0802C26.8333 6.70688 20.8333 0.720215 13.5 0.720215Z" fill="#1188D1"/>
</svg>
