<svg width="64" height="41" viewBox="0 0 64 41" fill="none" xmlns="http://www.w3.org/2000/svg">
<path d="M25.8658 29.424C25.8658 29.034 25.8548 28.666 25.8288 28.324C25.8038 27.981 25.7608 27.684 25.6948 27.431C25.5578 26.874 25.2848 26.425 24.8808 26.083C24.4758 25.74 23.9058 25.563 23.1728 25.552C22.7788 25.552 22.3748 25.61 21.9588 25.724C21.5398 25.838 21.1258 25.997 20.7168 26.208C20.3038 26.416 19.9118 26.67 19.5388 26.967C19.1658 27.262 18.8268 27.596 18.5238 27.961V40.618H14.0258V29.423C14.0258 29.033 14.0118 28.665 13.9858 28.323C13.9628 27.98 13.9178 27.683 13.8548 27.43C13.7148 26.873 13.4468 26.424 13.0478 26.082C12.6488 25.739 12.0758 25.562 11.3288 25.551C10.9378 25.551 10.5338 25.609 10.1148 25.723C9.69777 25.837 9.28176 25.996 8.87176 26.207C8.46176 26.415 8.06776 26.669 7.69576 26.966C7.32276 27.261 6.98376 27.595 6.68076 27.96V40.617H2.18276V22.23H5.90276L6.31977 24.793H6.39477C6.66077 24.41 6.99576 24.04 7.39976 23.672C7.80476 23.305 8.26376 22.983 8.77676 22.703C9.28976 22.427 9.85077 22.2 10.4638 22.03C11.0798 21.859 11.7268 21.773 12.4108 21.773C13.6248 21.773 14.7168 22.043 15.6828 22.581C16.6518 23.119 17.3878 23.958 17.8948 25.095H17.9718C18.3248 24.602 18.7208 24.152 19.1578 23.746C19.5938 23.342 20.0788 22.994 20.6088 22.703C21.1408 22.413 21.7118 22.185 22.3268 22.021C22.9398 21.855 23.5958 21.773 24.2908 21.773C25.6048 21.786 26.7108 22.06 27.6028 22.6C28.4928 23.135 29.1788 23.874 29.6608 24.809C29.7868 25.051 29.8948 25.314 29.9828 25.598C30.0718 25.88 30.1458 26.202 30.2028 26.556C30.2608 26.91 30.3008 27.303 30.3258 27.734C30.3508 28.161 30.3618 28.657 30.3618 29.213V40.616H25.8648L25.8658 29.424Z" fill="#333433"/>
<path d="M58.9788 29.424C58.9788 29.034 58.9638 28.666 58.9418 28.324C58.9158 27.981 58.8708 27.684 58.8078 27.431C58.6678 26.874 58.3968 26.425 57.9928 26.083C57.5878 25.74 57.0168 25.563 56.2828 25.552C55.8918 25.552 55.4868 25.61 55.0678 25.724C54.6518 25.838 54.2368 25.997 53.8258 26.208C53.4158 26.416 53.0218 26.67 52.6478 26.967C52.2748 27.262 51.9388 27.596 51.6338 27.961V40.618H47.1358V29.423C47.1358 29.033 47.1248 28.665 47.0988 28.323C47.0738 27.98 47.0318 27.683 46.9648 27.43C46.8248 26.873 46.5568 26.424 46.1578 26.082C45.7618 25.739 45.1888 25.562 44.4418 25.551C44.0488 25.551 43.6438 25.609 43.2278 25.723C42.8088 25.837 42.3958 25.996 41.9848 26.207C41.5718 26.415 41.1818 26.669 40.8078 26.966C40.4338 27.261 40.0948 27.595 39.7928 27.96V40.617H35.2948V22.23H39.0158L39.4308 24.793H39.5078C39.7728 24.41 40.1098 24.04 40.5138 23.672C40.9188 23.305 41.3768 22.983 41.8878 22.703C42.4008 22.427 42.9658 22.2 43.5778 22.03C44.1898 21.859 44.8408 21.773 45.5208 21.773C46.7358 21.773 47.8268 22.043 48.7948 22.581C49.7618 23.119 50.4998 23.958 51.0068 25.095H51.0808C51.4348 24.602 51.8308 24.152 52.2678 23.746C52.7038 23.342 53.1878 22.994 53.7208 22.703C54.2508 22.413 54.8238 22.185 55.4368 22.021C56.0488 21.855 56.7058 21.773 57.4008 21.773C58.7168 21.786 59.8208 22.06 60.7128 22.6C61.6058 23.135 62.2918 23.874 62.7708 24.809C62.8988 25.051 63.0048 25.314 63.0958 25.598C63.1848 25.88 63.2548 26.202 63.3128 26.556C63.3698 26.91 63.4098 27.303 63.4348 27.734C63.4598 28.161 63.4748 28.657 63.4748 29.213V40.616H58.9778V29.424H58.9788Z" fill="#333433"/>
<path d="M62.6208 19.992L32.3938 5.55L2.16476 19.992L0.905762 17.359L32.3938 2.315L63.8818 17.359L62.6208 19.992Z" fill="#333433"/>
<path d="M51.9508 13.375H48.8028L41.5448 9.90199V0.899002H51.9508V13.375ZM44.4638 8.063L49.0318 10.249V3.817H44.4638V8.063Z" fill="#333433"/>
</svg>
