<svg width="140" height="42" viewBox="0 0 140 42" fill="none" xmlns="http://www.w3.org/2000/svg">
<path d="M11.4911 25.799H11.1111C9.73206 25.799 8.52106 26.006 7.47706 26.417C6.43406 26.828 5.62706 27.457 5.05806 28.304V40.619H0.560059V22.232H4.27906L4.69606 24.795H4.77206C5.30306 23.857 6.03406 23.121 6.96306 22.583C7.89306 22.045 9.01006 21.775 10.3131 21.775C10.7681 21.775 11.1601 21.8 11.4891 21.852V25.799H11.4911Z" fill="#333433"/>
<path d="M31.6812 31.436C31.6812 32.878 31.4662 34.195 31.0362 35.384C30.6052 36.572 29.9892 37.589 29.1862 38.439C28.3832 39.286 27.4122 39.942 26.2732 40.404C25.1342 40.865 23.8622 41.095 22.4592 41.095C21.0172 41.095 19.7232 40.865 18.5792 40.404C17.4342 39.942 16.4632 39.286 15.6662 38.439C14.8682 37.589 14.2582 36.573 13.8352 35.384C13.4112 34.195 13.1992 32.878 13.1992 31.436C13.1992 29.995 13.4132 28.677 13.8442 27.49C14.2742 26.302 14.8912 25.28 15.6952 24.434C16.4982 23.587 17.4692 22.932 18.6082 22.47C19.7462 22.007 21.0182 21.777 22.4212 21.777C23.8632 21.777 25.1572 22.007 26.3022 22.47C27.4472 22.932 28.4182 23.587 29.2152 24.434C30.0112 25.28 30.6222 26.301 31.0462 27.49C31.4692 28.677 31.6812 29.994 31.6812 31.436ZM27.0322 31.436C27.0322 30.461 26.9182 29.601 26.6912 28.854C26.4632 28.111 26.1472 27.484 25.7422 26.976C25.3372 26.472 24.8502 26.093 24.2812 25.839C23.7122 25.585 23.0922 25.459 22.4222 25.459C21.7642 25.459 21.1532 25.585 20.5912 25.839C20.0282 26.093 19.5442 26.472 19.1392 26.976C18.7342 27.484 18.4182 28.111 18.1912 28.854C17.9632 29.601 17.8492 30.461 17.8492 31.436C17.8492 32.411 17.9632 33.269 18.1912 34.016C18.4182 34.762 18.7372 35.387 19.1492 35.885C19.5602 36.384 20.0472 36.766 20.6102 37.026C21.1732 37.285 21.7892 37.414 22.4602 37.414C23.1302 37.414 23.7442 37.285 24.3002 37.026C24.8572 36.766 25.3382 36.384 25.7422 35.885C26.1472 35.387 26.4632 34.762 26.6912 34.016C26.9182 33.269 27.0322 32.41 27.0322 31.436Z" fill="#333433"/>
<path d="M53.1993 31.436C53.1993 32.878 52.9843 34.195 52.5543 35.384C52.1233 36.572 51.5073 37.589 50.7043 38.439C49.9003 39.286 48.9303 39.942 47.7913 40.404C46.6523 40.865 45.3803 41.095 43.9773 41.095C42.5353 41.095 41.2413 40.865 40.0973 40.404C38.9523 39.942 37.9813 39.286 37.1843 38.439C36.3863 37.589 35.7763 36.573 35.3523 35.384C34.9283 34.195 34.7173 32.878 34.7173 31.436C34.7173 29.995 34.9313 28.677 35.3623 27.49C35.7923 26.302 36.4093 25.28 37.2133 24.434C38.0163 23.587 38.9873 22.932 40.1263 22.47C41.2643 22.007 42.5363 21.777 43.9393 21.777C45.3813 21.777 46.6753 22.007 47.8203 22.47C48.9653 22.932 49.9353 23.587 50.7333 24.434C51.5293 25.28 52.1393 26.301 52.5643 27.49C52.9873 28.677 53.1993 29.994 53.1993 31.436ZM48.5503 31.436C48.5503 30.461 48.4363 29.601 48.2093 28.854C47.9813 28.111 47.6653 27.484 47.2603 26.976C46.8553 26.472 46.3683 26.093 45.7993 25.839C45.2303 25.585 44.6103 25.459 43.9393 25.459C43.2813 25.459 42.6713 25.585 42.1083 25.839C41.5453 26.093 41.0613 26.472 40.6563 26.976C40.2513 27.484 39.9353 28.111 39.7083 28.854C39.4803 29.601 39.3663 30.461 39.3663 31.436C39.3663 32.411 39.4803 33.269 39.7083 34.016C39.9353 34.762 40.2543 35.387 40.6663 35.885C41.0773 36.384 41.5643 36.766 42.1273 37.026C42.6903 37.285 43.3063 37.414 43.9773 37.414C44.6473 37.414 45.2613 37.285 45.8173 37.026C46.3743 36.766 46.8553 36.384 47.2593 35.885C47.6643 35.387 47.9803 34.762 48.2083 34.016C48.4373 33.269 48.5503 32.41 48.5503 31.436Z" fill="#333433"/>
<path d="M80.8661 29.424C80.8661 29.034 80.8551 28.666 80.8291 28.324C80.8041 27.981 80.7611 27.684 80.6951 27.431C80.5581 26.874 80.2851 26.425 79.8811 26.083C79.4761 25.74 78.9061 25.563 78.1731 25.552C77.7791 25.552 77.3751 25.61 76.9591 25.724C76.5401 25.838 76.1261 25.997 75.7171 26.208C75.3041 26.416 74.9121 26.67 74.5391 26.967C74.1661 27.262 73.8271 27.596 73.5241 27.961V40.618H69.0261V29.423C69.0261 29.033 69.0121 28.665 68.9861 28.323C68.9631 27.98 68.9181 27.683 68.8551 27.43C68.7151 26.873 68.4471 26.424 68.0481 26.082C67.6491 25.739 67.0761 25.562 66.3291 25.551C65.9381 25.551 65.5341 25.609 65.1151 25.723C64.6981 25.837 64.2821 25.996 63.8721 26.207C63.4621 26.415 63.0681 26.669 62.6961 26.966C62.3231 27.261 61.9841 27.595 61.6811 27.96V40.617H57.1831V22.23H60.9031L61.3201 24.793H61.3951C61.6611 24.41 61.9961 24.04 62.4001 23.672C62.8051 23.305 63.2641 22.983 63.7771 22.703C64.2901 22.427 64.8511 22.2 65.4641 22.03C66.0801 21.859 66.7271 21.773 67.4111 21.773C68.6251 21.773 69.7171 22.043 70.6831 22.581C71.6521 23.119 72.3881 23.958 72.8951 25.095H72.9721C73.3251 24.602 73.7211 24.152 74.1581 23.746C74.5941 23.342 75.0791 22.994 75.6091 22.703C76.1411 22.413 76.7121 22.185 77.3271 22.021C77.9401 21.855 78.5961 21.773 79.2911 21.773C80.6051 21.786 81.7111 22.06 82.6031 22.6C83.4931 23.135 84.1791 23.874 84.6611 24.809C84.7871 25.051 84.8951 25.314 84.9831 25.598C85.0721 25.88 85.1461 26.202 85.2031 26.556C85.2611 26.91 85.3011 27.303 85.3261 27.734C85.3511 28.161 85.3621 28.657 85.3621 29.213V40.616H80.8651V29.424H80.8661Z" fill="#333433"/>
<path d="M113.979 29.424C113.979 29.034 113.964 28.666 113.942 28.324C113.916 27.981 113.871 27.684 113.808 27.431C113.668 26.874 113.397 26.425 112.993 26.083C112.588 25.74 112.017 25.563 111.283 25.552C110.892 25.552 110.487 25.61 110.068 25.724C109.652 25.838 109.237 25.997 108.826 26.208C108.416 26.416 108.022 26.67 107.648 26.967C107.275 27.262 106.939 27.596 106.634 27.961V40.618H102.136V29.423C102.136 29.033 102.125 28.665 102.099 28.323C102.074 27.98 102.032 27.683 101.965 27.43C101.825 26.873 101.557 26.424 101.158 26.082C100.762 25.739 100.189 25.562 99.4419 25.551C99.0489 25.551 98.6439 25.609 98.2279 25.723C97.8089 25.837 97.3959 25.996 96.9849 26.207C96.5719 26.415 96.1819 26.669 95.8079 26.966C95.4339 27.261 95.0949 27.595 94.7929 27.96V40.617H90.2949V22.23H94.0159L94.4309 24.793H94.5079C94.7729 24.41 95.1099 24.04 95.5139 23.672C95.9189 23.305 96.3769 22.983 96.8879 22.703C97.4009 22.427 97.9659 22.2 98.5779 22.03C99.1899 21.859 99.8409 21.773 100.521 21.773C101.736 21.773 102.827 22.043 103.795 22.581C104.762 23.119 105.5 23.958 106.007 25.095H106.081C106.435 24.602 106.831 24.152 107.268 23.746C107.704 23.342 108.188 22.994 108.721 22.703C109.251 22.413 109.824 22.185 110.437 22.021C111.049 21.855 111.706 21.773 112.401 21.773C113.717 21.786 114.821 22.06 115.713 22.6C116.606 23.135 117.292 23.874 117.771 24.809C117.899 25.051 118.005 25.314 118.096 25.598C118.185 25.88 118.255 26.202 118.313 26.556C118.37 26.91 118.41 27.303 118.435 27.734C118.46 28.161 118.475 28.657 118.475 29.213V40.616H113.978V29.424H113.979Z" fill="#2786C8"/>
<path d="M132.878 37.47C133.751 37.47 134.663 37.382 135.611 37.205C136.56 37.027 137.521 36.774 138.496 36.446V40.032C137.915 40.286 137.022 40.524 135.819 40.753C134.616 40.982 133.372 41.095 132.08 41.095C130.778 41.095 129.541 40.927 128.373 40.59C127.201 40.257 126.181 39.716 125.309 38.969C124.434 38.223 123.742 37.256 123.231 36.066C122.718 34.877 122.461 33.434 122.461 31.739C122.461 30.069 122.7 28.609 123.182 27.355C123.664 26.104 124.309 25.066 125.119 24.243C125.928 23.422 126.854 22.806 127.897 22.394C128.943 21.983 130.02 21.777 131.134 21.777C132.297 21.777 133.368 21.955 134.349 22.308C135.33 22.664 136.176 23.219 136.892 23.978C137.607 24.739 138.163 25.713 138.562 26.911C138.961 28.105 139.161 29.518 139.161 31.152C139.147 31.784 139.13 32.323 139.103 32.764H127.053C127.116 33.612 127.307 34.334 127.623 34.936C127.938 35.538 128.352 36.026 128.865 36.399C129.378 36.772 129.974 37.043 130.658 37.214C131.342 37.384 132.08 37.47 132.878 37.47ZM131.077 25.288C130.507 25.288 130 25.391 129.557 25.601C129.116 25.809 128.731 26.094 128.409 26.454C128.087 26.815 127.831 27.235 127.639 27.717C127.451 28.198 127.324 28.708 127.26 29.253H134.49C134.49 28.708 134.416 28.198 134.271 27.717C134.125 27.236 133.912 26.816 133.626 26.454C133.341 26.095 132.987 25.809 132.563 25.601C132.141 25.391 131.645 25.288 131.077 25.288Z" fill="#2786C8"/>
<path d="M117.621 19.992L87.3942 5.55L57.1652 19.992L55.9062 17.359L87.3942 2.315L118.882 17.359L117.621 19.992Z" fill="#333433"/>
<path d="M106.951 13.375H103.803L96.5454 9.90199V0.899002H106.951V13.375ZM99.4644 8.063L104.032 10.249V3.817H99.4644V8.063Z" fill="#333433"/>
</svg>
