<svg width="33" height="32" viewBox="0 0 33 32" fill="none" xmlns="http://www.w3.org/2000/svg">
<path d="M30.4467 8.00016C29.42 8.46683 28.3133 8.7735 27.1667 8.92016C28.34 8.2135 29.2467 7.0935 29.6733 5.74683C28.5667 6.4135 27.34 6.88016 26.0467 7.14683C24.9933 6.00016 23.5133 5.3335 21.8333 5.3335C18.7 5.3335 16.14 7.8935 16.14 11.0535C16.14 11.5068 16.1933 11.9468 16.2867 12.3602C11.54 12.1202 7.31333 9.84016 4.5 6.38683C4.00667 7.22683 3.72667 8.2135 3.72667 9.2535C3.72667 11.2402 4.72667 13.0002 6.27333 14.0002C5.32667 14.0002 4.44667 13.7335 3.67333 13.3335V13.3735C3.67333 16.1468 5.64667 18.4668 8.26 18.9868C7.42097 19.2164 6.54013 19.2484 5.68667 19.0802C6.04881 20.2168 6.75805 21.2114 7.71469 21.9241C8.67133 22.6368 9.82726 23.0317 11.02 23.0535C8.99817 24.6541 6.49199 25.5192 3.91333 25.5068C3.46 25.5068 3.00667 25.4802 2.55333 25.4268C5.08667 27.0535 8.1 28.0002 11.3267 28.0002C21.8333 28.0002 27.6067 19.2802 27.6067 11.7202C27.6067 11.4668 27.6067 11.2268 27.5933 10.9735C28.7133 10.1735 29.6733 9.16016 30.4467 8.00016Z" fill="#1188D1"/>
</svg>
